M48
;Layer_Color=9474304
;FILE_FORMAT=4:3
METRIC,LZ
;TYPE=PLATED
T1F00S00C0.500
%
T01
X0009273Y0005901
X0008603Y0007722
X0008846Y0009612
X0009917Y0011189
X0011612Y0012084
X0013527Y0012072
X001522Y0011191
X0016308Y0009611
X001654Y0007708
X0015863Y0005917
X001443Y0004659
X0012573Y0004201
X0010716Y0004657
X0011303Y0018996
X0013843
X0016383
X0018923
X0021463
X002413
X002667
X002921
X003175
X003429
X0036957
X0039497
X0033254Y0011191
X0031561Y0012072
X0029646Y0012084
X0027951Y0011189
X002688Y0009612
X0026637Y0007722
X0027307Y0005901
X002875Y0004657
X0030607Y0004201
X0032464Y0004659
X0033897Y0005917
X0034574Y0007708
X0034342Y0009611
X0045168Y0009612
X0044925Y0007722
X0045595Y0005901
X0047038Y0004657
X0048895Y0004201
X0050752Y0004659
X0052185Y0005917
X0052862Y0007708
X005263Y0009611
X0051542Y0011191
X0049849Y0012072
X0047934Y0012084
X0046239Y0011189
X0047117Y0018996
X0044577
X0042037
M30
