%TF.GenerationSoftware,Altium Limited,Altium Designer,20.0.9 (164)*%
G04 Layer_Physical_Order=1*
G04 Layer_Color=255*
%FSLAX45Y45*%
%MOMM*%
%TF.FileFunction,Copper,L1,Top,Signal*%
%TF.Part,Single*%
G01*
G75*
%TA.AperFunction,NonConductor*%
%ADD10C,1.00000*%
%ADD11C,0.35000*%
%ADD12C,0.20000*%
%ADD13C,0.50000*%
%ADD14C,0.40000*%
%TA.AperFunction,ComponentPad*%
%ADD15C,1.00000*%
G04:AMPARAMS|DCode=16|XSize=1mm|YSize=1mm|CornerRadius=0.25mm|HoleSize=0mm|Usage=FLASHONLY|Rotation=180.000|XOffset=0mm|YOffset=0mm|HoleType=Round|Shape=RoundedRectangle|*
%AMROUNDEDRECTD16*
21,1,1.00000,0.50000,0,0,180.0*
21,1,0.50000,1.00000,0,0,180.0*
1,1,0.50000,-0.25000,0.25000*
1,1,0.50000,0.25000,0.25000*
1,1,0.50000,0.25000,-0.25000*
1,1,0.50000,-0.25000,-0.25000*
%
%ADD16ROUNDEDRECTD16*%
G04:AMPARAMS|DCode=17|XSize=1.5mm|YSize=1.5mm|CornerRadius=0.375mm|HoleSize=0mm|Usage=FLASHONLY|Rotation=90.000|XOffset=0mm|YOffset=0mm|HoleType=Round|Shape=RoundedRectangle|*
%AMROUNDEDRECTD17*
21,1,1.50000,0.75000,0,0,90.0*
21,1,0.75000,1.50000,0,0,90.0*
1,1,0.75000,0.37500,0.37500*
1,1,0.75000,0.37500,-0.37500*
1,1,0.75000,-0.37500,-0.37500*
1,1,0.75000,-0.37500,0.37500*
%
%ADD17ROUNDEDRECTD17*%
%ADD18C,1.50000*%
D10*
X1346200Y1293500D02*
X1352682Y1287018D01*
Y1185345D02*
Y1287018D01*
X3149600Y1191827D02*
Y1357000D01*
Y1191827D02*
X3156082Y1185345D01*
X4978400Y1382400D02*
X4984882Y1375918D01*
Y1185345D02*
Y1375918D01*
X1257300Y1090300D02*
Y1090442D01*
X1161195Y1186548D02*
X1257300Y1090442D01*
X1522029Y1097237D02*
X1600200Y1175408D01*
Y1255400D01*
X2964595Y1186548D02*
Y1338806D01*
X2959100Y1344300D02*
X2964595Y1338806D01*
X4787900Y1344300D02*
X4793395Y1338806D01*
Y1186548D02*
Y1338806D01*
X5029902Y1055753D02*
X5112745D01*
X5154229Y1097237D01*
X991726Y1097050D02*
X1009250D01*
X1117600Y988700D01*
X2667000Y1179200D02*
X2712976D01*
X3384550Y1223650D02*
X3397250Y1236350D01*
X5041088Y925200D02*
X5248993D01*
X5263038Y939245D01*
X1630838D02*
X1665045D01*
X884582Y939302D02*
X989198D01*
X1665045Y939245D02*
X1727200Y1001400D01*
X1801872Y748928D02*
X1803400Y747400D01*
X1654044Y748928D02*
X1801872D01*
X989198Y939302D02*
X1054100Y874400D01*
X860280Y750253D02*
X1038547D01*
X2514600Y760100D02*
X2519950D01*
X2526050Y754000D01*
X2659933D01*
X2663680Y750253D01*
X2609448Y939302D02*
X2687982D01*
X2599881Y948869D02*
X2609448Y939302D01*
X2527300Y1001400D02*
X2579831Y948869D01*
X2589856Y958894D02*
X2599881Y948869D01*
X3526778Y748928D02*
X3610475Y832625D01*
X3457444Y748928D02*
X3526778D01*
X4330700Y747400D02*
X4488805D01*
X4521200Y1179200D02*
X4541776D01*
X4623926Y1097050D01*
X4356100Y950600D02*
X4362700Y944000D01*
X4512084D02*
X4516782Y939302D01*
X4362700Y944000D02*
X4512084D01*
X5029200Y620400D02*
X5167892D01*
X5218481Y569811D01*
X1586281D02*
X1624592Y531500D01*
X1739900D01*
X3384550Y1163407D02*
Y1223650D01*
X3315140Y1093997D02*
X3318381Y1097237D01*
X3563350Y1064900D02*
X3568700D01*
X3493750Y995300D02*
X3563350Y1064900D01*
X3490293Y995300D02*
X3493750D01*
X3434238Y939245D02*
X3490293Y995300D01*
X2712976Y1179200D02*
X2795126Y1097050D01*
X3389681Y569811D02*
X3421438D01*
X3440450Y550800D02*
X3600700D01*
Y550800D02*
Y550800D01*
X3318381Y1097237D02*
X3384550Y1163407D01*
X1443000Y434700D02*
X1549400Y328300D01*
X1443000Y434700D02*
Y444031D01*
X989353Y630253D02*
X1078225D01*
X2642400Y479900D02*
X2730700Y568200D01*
X3329631Y360800D02*
X3378200D01*
X3246400Y444031D02*
X3329631Y360800D01*
X4542100Y550800D02*
X4559500Y568200D01*
X4413500Y550800D02*
X4542100D01*
X4406900Y544200D02*
X4413500Y550800D01*
X4978651Y493400D02*
X5025831D01*
X4927600Y531500D02*
X4940551D01*
X4978651Y493400D01*
X1071567Y361633D02*
X1155700Y277500D01*
X1071567Y361633D02*
Y443795D01*
X2870200Y239400D02*
X2874967Y244167D01*
Y443795D01*
X4711700Y239400D02*
Y435862D01*
X4703767Y443795D02*
X4711700Y435862D01*
X887800Y607700D02*
X927300Y568200D01*
X800100Y607700D02*
X887800D01*
X685800Y747400D02*
X688653Y750253D01*
X860280D01*
X699902Y939302D02*
X884582D01*
X698500Y937900D02*
X699902Y939302D01*
X991726Y1097050D02*
Y1241574D01*
X990600Y1242700D02*
X991726Y1241574D01*
X2155867Y1696767D02*
Y1868133D01*
X2146300Y1877700D02*
X2155867Y1868133D01*
X2667000Y1636400D02*
Y1877700D01*
X1161195Y1186548D02*
Y1286295D01*
X2413000Y1674500D02*
Y1877700D01*
X2908300Y1649100D02*
X2911900Y1652700D01*
Y1868600D01*
X2921000Y1877700D01*
X5154229Y1097237D02*
Y1209229D01*
X5025831Y493400D02*
X5075200Y444031D01*
X5308600Y984807D02*
Y1153800D01*
X5263038Y939245D02*
X5308600Y984807D01*
X3886200Y1954730D02*
Y1992000D01*
Y1954730D02*
X3949700Y1891230D01*
Y1877700D02*
Y1891230D01*
X3175000Y1877700D02*
X3184567Y1868133D01*
Y1715733D02*
X3213100Y1687200D01*
X3184567Y1715733D02*
Y1868133D01*
X5284716Y747400D02*
X5286244Y748928D01*
X5092700Y760100D02*
X5105400Y747400D01*
X5284716D01*
X5373628Y748928D02*
X5410200Y785500D01*
X5286244Y748928D02*
X5373628D01*
X3429000Y1877700D02*
X3438567Y1868133D01*
Y1817333D02*
Y1868133D01*
X5218481Y569811D02*
X5231392Y556900D01*
X5410200D01*
X3438567Y1817333D02*
X3505200Y1750700D01*
X1014757Y386985D02*
X1071567Y443795D01*
X1892300Y1738000D02*
Y1877700D01*
X1308100Y531500D02*
X1355531D01*
X1443000Y444031D01*
X1150989Y641089D02*
X1155700Y645800D01*
X1078225Y630253D02*
X1089061Y641089D01*
X927300Y568200D02*
X989353Y630253D01*
X952500Y1763400D02*
X1016000D01*
X1130300Y1877700D01*
X931915Y386985D02*
X1014757D01*
X1089061Y641089D02*
X1150989D01*
X1312147Y1780147D02*
Y1792017D01*
X1384300Y1864170D01*
Y1877700D01*
X1549400Y1966600D02*
X1638300Y1877700D01*
X4711700D02*
X4914900D01*
X4889500Y398200D02*
X4895800D01*
X4889500D02*
X4972100Y315600D01*
D11*
X1440182Y1139134D02*
Y1171582D01*
X2857500Y1166500D02*
Y1191900D01*
X4635500Y1268100D02*
X4686300Y1217300D01*
Y1166500D02*
Y1217300D01*
Y1166500D02*
X4762500Y1090300D01*
X1581095Y1026745D02*
X1600145D01*
X1568450Y1014100D02*
X1581095Y1026745D01*
X3412929Y1060994D02*
Y1061529D01*
X4610099Y1001401D02*
X4635500Y976000D01*
X2565400Y849000D02*
X2572900Y841500D01*
X2716233Y1052200D02*
X2758882Y1009550D01*
X1614089Y657311D02*
X1622524D01*
X2654300Y1052200D02*
X2716233D01*
X3433772Y849000D02*
X3492500D01*
X3421073Y836300D02*
X3433772Y849000D01*
X2857500Y1166500D02*
X2959100Y1064900D01*
X3390900Y658500D02*
X3467100D01*
X4595832Y1001401D02*
X4610099D01*
X4513356Y645800D02*
X4523256Y655700D01*
X1646736Y633100D02*
X1727200D01*
X1622524Y657311D02*
X1646736Y633100D01*
X3389631Y833275D02*
X3392657Y836300D01*
X3185122Y1087722D02*
X3243582Y1146182D01*
X3166159Y1087722D02*
X3185122D01*
X2832100Y1217300D02*
X2857500Y1191900D01*
X3361137Y1009737D02*
X3361672D01*
X3412929Y1060994D01*
X3304675Y953275D02*
X3361137Y1009737D01*
X3340100Y709300D02*
X3390900Y658500D01*
X3392657Y836300D02*
X3421073D01*
X3492500Y849000D02*
X3530600Y887100D01*
X2758882Y1009550D02*
X2823950D01*
X2857500Y976000D01*
X3243582Y1146182D02*
Y1165146D01*
X3289300Y1210864D01*
X2639054Y658500D02*
X2760459D01*
X2768600Y468000D02*
X2832100Y531500D01*
X2971800D01*
X4523256Y655700D02*
X4531100D01*
X4608767Y483117D02*
X4673600Y547950D01*
X1391348Y1090300D02*
X1440182Y1139134D01*
Y1171582D02*
X1485900Y1217300D01*
X1257300Y1090300D02*
X1391348D01*
X1549400Y1014100D02*
X1568450D01*
X1600145Y1026745D02*
X1663700Y1090300D01*
X1524000Y988700D02*
X1549400Y1014100D01*
X1587500Y683900D02*
X1614089Y657311D01*
X1536700Y683900D02*
X1587500D01*
X2823877Y841500D02*
X2867888Y797488D01*
X2572900Y841500D02*
X2823877D01*
X4570431Y1026802D02*
X4595832Y1001401D01*
X4546598Y1026802D02*
X4570431D01*
X4508500Y1064900D02*
X4546598Y1026802D01*
X4457700Y645800D02*
X4513356D01*
X4531100Y655700D02*
X4584700Y709300D01*
X3444375Y1092975D02*
X3505200Y1153800D01*
X3412929Y1061529D02*
X3444375Y1092975D01*
X4406900Y849000D02*
X4584700D01*
X1117804Y546089D02*
X1128411D01*
X1114469Y542753D02*
X1117804Y546089D01*
X1046782Y542753D02*
X1114469D01*
X901886Y480700D02*
X984729D01*
X894200Y473014D02*
X901886Y480700D01*
X984729D02*
X1046782Y542753D01*
X820487Y473014D02*
X894200D01*
D12*
X1485900Y1205426D02*
Y1230000D01*
X4762500Y1055753D02*
Y1090300D01*
X3454400Y1082950D02*
Y1090300D01*
X3467100Y658500D02*
X3479800Y645800D01*
X3289300Y1210864D02*
Y1217300D01*
X4673600Y547950D02*
Y556900D01*
X4584700Y849000D02*
X4597400Y836300D01*
X5410200Y785500D02*
X5422900Y798200D01*
D13*
X3067300Y1439300D02*
X3073400Y1433200D01*
X4762500Y1055753D02*
X5029902D01*
X1117600Y988700D02*
X1524000D01*
X1663700Y1090300D02*
X1701800Y1128400D01*
X1731090Y1179200D02*
X2667000D01*
X1701800Y1149911D02*
X1731090Y1179200D01*
X1701800Y1128400D02*
Y1149911D01*
X2775200Y1274200D02*
X2832100Y1217300D01*
X1619000Y1274200D02*
X2775200D01*
X1600200Y1255400D02*
X1619000Y1274200D01*
X1727200Y1001400D02*
Y1026800D01*
X3505200Y1141100D02*
Y1162611D01*
X3521790Y1179200D01*
X3454400Y1090300D02*
X3505200Y1141100D01*
X3568700Y1064900D02*
X4508500D01*
X4686300Y925200D02*
X5041088D01*
X4635500Y976000D02*
X4686300Y925200D01*
X1704395Y844245D02*
X1734550Y874400D01*
X1765300D01*
X1054100D02*
X1561333D01*
X1591488Y844245D01*
X2964595Y1186548D02*
X2978125D01*
X1591488Y844245D02*
X1704395D01*
X1038547Y750253D02*
X1470347D01*
X1536700Y683900D01*
X1765300Y874400D02*
X1892300Y1001400D01*
X2527300D01*
X1803400Y747400D02*
X1981200Y925200D01*
X2445750Y828950D02*
X2514600Y760100D01*
X2019300Y828950D02*
X2445750D01*
X2579831Y948869D02*
X2599881D01*
X1727200Y1026800D02*
X1796800Y1096400D01*
X2469150Y925200D02*
X2540481Y853869D01*
X2560531D01*
X2610100Y1096400D02*
X2654300Y1052200D01*
X1796800Y1096400D02*
X2610100D01*
X2560531Y853869D02*
X2565400Y849000D01*
X1981200Y925200D02*
X2469150D01*
X3659600Y747400D02*
X4330700D01*
X4629400Y1274200D02*
X4635500Y1268100D01*
X3521790Y1179200D02*
X4521200D01*
X3530600Y887100D02*
X3594100Y950600D01*
X4356100D01*
X1823450Y633100D02*
X2019300Y828950D01*
X1727200Y633100D02*
X1823450D01*
X1739900Y531500D02*
X1892300D01*
X2019300Y658500D01*
X2639054D01*
X3479800Y645800D02*
X3558000D01*
X3659600Y747400D01*
X4940300Y709300D02*
X5029200Y620400D01*
X2736815Y904000D02*
X2853300D01*
X3600700Y550800D02*
X3695700Y645800D01*
X4457700D01*
X2579700Y417200D02*
X2642400Y479900D01*
X1549400Y328300D02*
X2628900D01*
X1604181Y417200D02*
X2579700D01*
X2628900Y328300D02*
X2768600Y468000D01*
X2853300Y904000D02*
X2908300Y849000D01*
X2971800Y531500D02*
X2997200Y506100D01*
X3170801D01*
X3232870Y444031D01*
X3246400D01*
X3378200Y360800D02*
X3690100D01*
X3746500Y544200D02*
X4406900D01*
X3368982Y455800D02*
X3658100D01*
X3746500Y544200D01*
X3778500Y449200D02*
X4574850D01*
X3690100Y360800D02*
X3778500Y449200D01*
X4574850D02*
X4608767Y483117D01*
X4902200Y556900D02*
X4927600Y531500D01*
X4673600Y556900D02*
X4902200D01*
X1155700Y277500D02*
X1219200Y214000D01*
X2844800D01*
X2870200Y239400D01*
X4686300Y214000D02*
X4711700Y239400D01*
X2844800Y214000D02*
X4686300D01*
X2823200Y750253D02*
X2851953Y721500D01*
X2663680Y750253D02*
X2823200D01*
X4584700Y709300D02*
X4940300D01*
X537290Y747400D02*
X685800D01*
X219790Y386985D02*
X931915D01*
X508000Y1543611D02*
X537290Y1572900D01*
X419100Y1632511D02*
X448390Y1661800D01*
X508000Y776690D02*
X537290Y747400D01*
X1003300Y1992000D02*
X1052928D01*
X1485900Y1230000D02*
Y1318900D01*
X2946400Y1357000D02*
X2959100Y1344300D01*
X1485900Y1318900D02*
X1524000Y1357000D01*
X2946400D01*
X2654300Y1439300D02*
X2667000Y1452000D01*
Y1636400D01*
X2457450Y1439300D02*
X2654300D01*
X537290Y1572900D02*
X1231900D01*
X508000Y776690D02*
Y1543611D01*
X990600Y1242700D02*
Y1467411D01*
X1019890Y1496700D01*
X1346200Y1293500D02*
Y1369700D01*
X1019890Y1496700D02*
X1257300D01*
X2654300Y1439300D02*
X3067300D01*
X2908300Y1560200D02*
Y1649100D01*
X3073400Y1433200D02*
X3149600Y1357000D01*
X5118100Y1331600D02*
X5143500Y1306200D01*
X2908300Y1560200D02*
X2959100Y1509400D01*
X3035300Y1822295D02*
X3048000Y1834995D01*
X3035300Y1687200D02*
Y1822295D01*
X3048000Y1834995D02*
Y1962711D01*
X3082990Y1997700D01*
X3880500D01*
X5118100Y1331600D02*
Y1423105D01*
X3397250Y1236350D02*
X3435100Y1274200D01*
X4629400D01*
X3318590Y1357000D02*
X4775200D01*
X4787900Y1344300D01*
X3289300Y1217300D02*
Y1327711D01*
X3318590Y1357000D01*
X5308600Y1153800D02*
Y1331600D01*
X3606800Y836300D02*
X3619500Y849000D01*
X4406900D01*
X4597400Y836300D02*
X4914900D01*
X4991100Y760100D01*
X5092700D01*
X3073400Y1433200D02*
X3083813D01*
X3089913Y1439300D02*
X4921500D01*
X4978400Y1382400D01*
X5031805Y1509400D02*
X5118100Y1423105D01*
X3083813Y1433200D02*
X3089913Y1439300D01*
X2959100Y1509400D02*
X5031805D01*
X3035300Y1687200D02*
X3137200Y1585300D01*
X5054900D02*
X5308600Y1331600D01*
X3137200Y1585300D02*
X5054900D01*
X5150000Y1655300D02*
X5422900Y1382400D01*
X3245000Y1655300D02*
X5150000D01*
X3213100Y1687200D02*
X3245000Y1655300D01*
X5422900Y798200D02*
Y1382400D01*
X3505200Y1750700D02*
X3530600D01*
X5410200Y556900D02*
X5511800Y658500D01*
X3530600Y1750700D02*
X3556000Y1725300D01*
X1155700Y645800D02*
X1375581D01*
X1604181Y417200D01*
X1409700Y1433200D02*
X2451350D01*
X2457450Y1439300D01*
X1384300Y1509400D02*
X2247900D01*
X1346200Y1369700D02*
X1409700Y1433200D01*
X2247900Y1509400D02*
X2413000Y1674500D01*
X1161195Y1286295D02*
X1384300Y1509400D01*
X2057400Y1598300D02*
X2155867Y1696767D01*
X1257300Y1496700D02*
X1358900Y1598300D01*
X2057400D01*
X1231900Y1572900D02*
X1333500Y1674500D01*
X1828800D01*
X1892300Y1738000D01*
X448390Y1661800D02*
X1193800D01*
X1312147Y1780147D01*
X1143000Y531500D02*
X1308100D01*
X793750Y499750D02*
X820487Y473014D01*
X190500Y416275D02*
X219790Y386985D01*
X190500Y416275D02*
Y1776100D01*
X448390Y607700D02*
X800100D01*
X419100Y636990D02*
Y1632511D01*
Y636990D02*
X448390Y607700D01*
X336550Y499750D02*
X793750D01*
X1128411Y546089D02*
X1143000Y531500D01*
X304800D02*
X336550Y499750D01*
X876300Y1865000D02*
X1003300Y1992000D01*
X190500Y1776100D02*
X279400Y1865000D01*
X876300D01*
X304800Y1687200D02*
X381000Y1763400D01*
X304800Y531500D02*
Y1687200D01*
X381000Y1763400D02*
X952500D01*
X1058628Y1997700D02*
X1518300D01*
X5143500Y1219958D02*
X5154229Y1209229D01*
X5143500Y1219958D02*
Y1306200D01*
X5207000Y1725300D02*
X5511800Y1420500D01*
X3556000Y1725300D02*
X5207000D01*
X5511800Y658500D02*
Y1420500D01*
X5194300Y1877700D02*
X5613400Y1458600D01*
X4914900Y1877700D02*
X5194300D01*
X5449550Y461900D02*
X5613400Y625750D01*
Y1458600D01*
X5105400Y315600D02*
X5251700Y461900D01*
X4972100Y315600D02*
X5105400D01*
X5251700Y461900D02*
X5449550D01*
X3880500Y1997700D02*
X3886200Y1992000D01*
X1518300Y1997700D02*
X1549400Y1966600D01*
X1052928Y1992000D02*
X1058628Y1997700D01*
D14*
X3097158Y1029000D02*
X3098435Y1027723D01*
X2841362Y1067050D02*
X2867026D01*
X2908300Y849000D02*
X3022600D01*
X3421438Y569811D02*
X3440450Y550800D01*
X3361453Y925200D02*
X3380807D01*
X3386274Y773275D02*
X3412149Y747400D01*
X2978125Y1173018D02*
X3062143Y1089000D01*
X3239678Y1027723D02*
X3309193Y1097237D01*
X3318381D01*
X2959100Y1064900D02*
X2995000Y1029000D01*
X3097158D01*
X3151744Y1089000D02*
X3153021Y1087722D01*
X2867888Y797488D02*
X2888877Y776500D01*
X2775236Y596500D02*
X2998724D01*
X3329527Y893275D02*
X3361453Y925200D01*
X3080168Y961137D02*
X3143201D01*
X2857500Y976000D02*
X2873224D01*
X3035101Y836499D02*
X3098134D01*
X2746936Y568200D02*
X2775236Y596500D01*
X3030776Y649300D02*
X3310192D01*
X3389681Y569811D01*
X2965077Y969000D02*
X3072305D01*
X3151064Y953275D02*
X3304675D01*
X2873224Y976000D02*
X2940224Y909000D01*
X3098134Y836499D02*
X3101359Y833275D01*
X3389632D01*
X3005923Y589300D02*
X3235481D01*
X3023576Y656500D02*
X3030776Y649300D01*
X2888877Y776500D02*
X3073282D01*
X3143201Y961137D02*
X3151064Y953275D01*
X3122987Y896499D02*
X3126211Y893275D01*
X3073282Y776500D02*
X3076506Y773275D01*
X3386274D01*
X2730700Y568200D02*
X2746936D01*
X3126211Y893275D02*
X3329527D01*
X3048429Y716500D02*
X3055629Y709300D01*
X3340100D01*
X3235481Y589300D02*
X3368982Y455800D01*
X2998724Y596500D02*
X3005923Y589300D01*
X2795126Y1097050D02*
X2811362D01*
X3072305Y969000D02*
X3080168Y961137D01*
X3059953Y896499D02*
X3122987D01*
X3047453Y909000D02*
X3059953Y896499D01*
X3062143Y1089000D02*
X3151744D01*
X2811362Y1097050D02*
X2841362Y1067050D01*
X3022600Y849000D02*
X3035101Y836499D01*
X3153021Y1087722D02*
X3166159D01*
X2978125Y1173018D02*
Y1186548D01*
X3098435Y1027723D02*
X3239678D01*
X2867026Y1067050D02*
X2965077Y969000D01*
X2940224Y909000D02*
X3047453D01*
X2851953Y716500D02*
X3048429D01*
X2773159Y656500D02*
X3023576D01*
D15*
X1443000Y444031D02*
D03*
X1586281Y569811D02*
D03*
X1654044Y748928D02*
D03*
X1630838Y939245D02*
D03*
X1522029Y1097237D02*
D03*
X1352682Y1185345D02*
D03*
X1161195Y1186548D02*
D03*
X991726Y1097050D02*
D03*
X884582Y939302D02*
D03*
X860280Y750253D02*
D03*
X927300Y568200D02*
D03*
X1071567Y443795D02*
D03*
X4703767D02*
D03*
X4559500Y568200D02*
D03*
X4492480Y750253D02*
D03*
X4516782Y939302D02*
D03*
X4623926Y1097050D02*
D03*
X4793395Y1186548D02*
D03*
X4984882Y1185345D02*
D03*
X5154229Y1097237D02*
D03*
X5263038Y939245D02*
D03*
X5286244Y748928D02*
D03*
X5218481Y569811D02*
D03*
X5075200Y444031D02*
D03*
X2874967Y443795D02*
D03*
X2730700Y568200D02*
D03*
X2663680Y750253D02*
D03*
X2687982Y939302D02*
D03*
X2795126Y1097050D02*
D03*
X2964595Y1186548D02*
D03*
X3156082Y1185345D02*
D03*
X3325429Y1097237D02*
D03*
X3434238Y939245D02*
D03*
X3457444Y748928D02*
D03*
X3389681Y569811D02*
D03*
X3246400Y444031D02*
D03*
D16*
X1257300Y398200D02*
D03*
X4889500D02*
D03*
X3060700D02*
D03*
D17*
X2413000Y1877700D02*
D03*
X3695700D02*
D03*
X1130300D02*
D03*
D18*
X2667000D02*
D03*
X2921000D02*
D03*
X3175000D02*
D03*
X3429000D02*
D03*
X3949700D02*
D03*
X4203700D02*
D03*
X4457700D02*
D03*
X4711700D02*
D03*
X2146300D02*
D03*
X1892300D02*
D03*
X1638300D02*
D03*
X1384300D02*
D03*
%TF.MD5,12db78e05910ff1ec8af80109ad83df2*%
M02*
